<?xml version="1.0" standalone="no"?>
<!DOCTYPE svg PUBLIC "-//W3C//DTD SVG 1.1//EN"
"http://www.w3.org/Graphics/SVG/1.1/DTD/svg11.dtd">

<svg width="292" height="349" view_box="0 0 292 349"
xmlns="http://www.w3.org/2000/svg"
xmlns:link="http://www.w3.org/1999/xlink">\n\n<desc>Généré par Mocodo 2.3.7 le Sat, 24 Apr 2021 09:34:13</desc>

<rect id="frame" x="0" y="0" width="292" height="349" fill="#f7f7f7" stroke="none" stroke-width="0"/>

<!-- Association IS -->
<line x1="243" y1="94" x2="243" y2="272" stroke="#de77ae" stroke-width="2"/>
<text x="248.0" y="196" fill="#4d9221" font-family="Verdana" font-size="12">0,1</text>
<line x1="157" y1="272" x2="243" y2="272" stroke="#de77ae" stroke-width="2"/>
<text x="202" y="289.0" fill="#4d9221" font-family="Verdana" font-size="12">1,1</text>
<g id="association-IS">
	<path d="M 243 247 a 14 14 90 0 1 14 14 V 272 h -28 V 261 a 14 14 90 0 1 14 -14" fill="#f1b6da" stroke="#f1b6da" stroke-width="0"/>
	<path d="M 257 272.0 v 11 a 14 14 90 0 1 -14 14 H 243 a 14 14 90 0 1 -14 -14 V 272.0 H 28" fill="#fde0ef" stroke="#fde0ef" stroke-width="0"/>
	<rect x="229" y="247" width="28" height="50" fill="none" rx="14" stroke="#de77ae" stroke-width="2"/>
	<line x1="229" y1="272" x2="257" y2="272" stroke="#de77ae" stroke-width="1"/>
	<text x="236" y="264.7" fill="#000000" font-family="Verdana" font-size="12">IS</text>
</g>

<!-- Association HAS -->
<line x1="157" y1="272" x2="65" y2="272" stroke="#de77ae" stroke-width="2"/>
<text x="90" y="289.0" fill="#4d9221" font-family="Verdana" font-size="12">0,N</text>
<line x1="65" y1="94" x2="65" y2="272" stroke="#de77ae" stroke-width="2"/>
<text x="70.0" y="187" fill="#4d9221" font-family="Verdana" font-size="12">1,1</text>
<g id="association-HAS">
	<path d="M 71 247 a 14 14 90 0 1 14 14 V 272 h -40 V 261 a 14 14 90 0 1 14 -14" fill="#f1b6da" stroke="#f1b6da" stroke-width="0"/>
	<path d="M 85 272.0 v 11 a 14 14 90 0 1 -14 14 H 59 a 14 14 90 0 1 -14 -14 V 272.0 H 40" fill="#fde0ef" stroke="#fde0ef" stroke-width="0"/>
	<rect x="45" y="247" width="40" height="50" fill="none" rx="14" stroke="#de77ae" stroke-width="2"/>
	<line x1="45" y1="272" x2="85" y2="272" stroke="#de77ae" stroke-width="1"/>
	<text x="52" y="264.7" fill="#000000" font-family="Verdana" font-size="12">HAS</text>
</g>

<!-- Entity SHOT -->
<g id="entity-SHOT">
	<g id="frame-SHOT">
		<rect x="9" y="18" width="112" height="25" fill="#b8e186" stroke="#b8e186" stroke-width="0"/>
		<rect x="9" y="43.0" width="112" height="127" fill="#e6f5d0" stroke="#e6f5d0" stroke-width="0"/>
		<rect x="9" y="18" width="112" height="152" fill="none" stroke="#7fbc41" stroke-width="2"/>
		<line x1="9" y1="43" x2="121" y2="43" stroke="#7fbc41" stroke-width="1"/>
	</g>
	<text x="47" y="35.7" fill="#000000" font-family="Verdana" font-size="12">SHOT</text>
	<text x="14" y="60.7" fill="#000000" font-family="Verdana" font-size="12">title</text>
	<line x1="14" y1="63" x2="38" y2="63" stroke="#000000" stroke-width="1"/>
	<text x="14" y="77.7" fill="#000000" font-family="Verdana" font-size="12">picture</text>
	<text x="14" y="94.8" fill="#000000" font-family="Verdana" font-size="12">description</text>
	<text x="14" y="111.8" fill="#000000" font-family="Verdana" font-size="12">publication_date</text>
	<text x="14" y="128.8" fill="#000000" font-family="Verdana" font-size="12">author_id</text>
	<text x="14" y="145.8" fill="#000000" font-family="Verdana" font-size="12">created_at</text>
	<text x="14" y="162.8" fill="#000000" font-family="Verdana" font-size="12">updated_at</text>
</g>

<!-- Entity USER -->
<g id="entity-USER">
	<g id="frame-USER">
		<rect x="203" y="9" width="80" height="25" fill="#b8e186" stroke="#b8e186" stroke-width="0"/>
		<rect x="203" y="34.0" width="80" height="145" fill="#e6f5d0" stroke="#e6f5d0" stroke-width="0"/>
		<rect x="203" y="9" width="80" height="170" fill="none" stroke="#7fbc41" stroke-width="2"/>
		<line x1="203" y1="34" x2="283" y2="34" stroke="#7fbc41" stroke-width="1"/>
	</g>
	<text x="226" y="26.7" fill="#000000" font-family="Verdana" font-size="12">USER</text>
	<text x="208" y="51.7" fill="#000000" font-family="Verdana" font-size="12">firstname</text>
	<line x1="208" y1="54" x2="266" y2="54" stroke="#000000" stroke-width="1"/>
	<text x="208" y="68.7" fill="#000000" font-family="Verdana" font-size="12">lastname</text>
	<text x="208" y="85.7" fill="#000000" font-family="Verdana" font-size="12">email</text>
	<text x="208" y="102.8" fill="#000000" font-family="Verdana" font-size="12">password</text>
	<text x="208" y="119.8" fill="#000000" font-family="Verdana" font-size="12">role</text>
	<text x="208" y="136.8" fill="#000000" font-family="Verdana" font-size="12">author_id</text>
	<text x="208" y="153.8" fill="#000000" font-family="Verdana" font-size="12">created_at</text>
	<text x="208" y="170.8" fill="#000000" font-family="Verdana" font-size="12">updated_at</text>
</g>

<!-- Entity AUTHOR -->
<g id="entity-AUTHOR">
	<g id="frame-AUTHOR">
		<rect x="117" y="204" width="80" height="25" fill="#b8e186" stroke="#b8e186" stroke-width="0"/>
		<rect x="117" y="229.0" width="80" height="111" fill="#e6f5d0" stroke="#e6f5d0" stroke-width="0"/>
		<rect x="117" y="204" width="80" height="136" fill="none" stroke="#7fbc41" stroke-width="2"/>
		<line x1="117" y1="229" x2="197" y2="229" stroke="#7fbc41" stroke-width="1"/>
	</g>
	<text x="131" y="221.7" fill="#000000" font-family="Verdana" font-size="12">AUTHOR</text>
	<text x="122" y="246.7" fill="#000000" font-family="Verdana" font-size="12">username</text>
	<line x1="122" y1="249" x2="183" y2="249" stroke="#000000" stroke-width="1"/>
	<text x="122" y="263.7" fill="#000000" font-family="Verdana" font-size="12">city</text>
	<text x="122" y="280.8" fill="#000000" font-family="Verdana" font-size="12">country</text>
	<text x="122" y="297.8" fill="#000000" font-family="Verdana" font-size="12">user_id</text>
	<text x="122" y="314.8" fill="#000000" font-family="Verdana" font-size="12">created_at</text>
	<text x="122" y="331.8" fill="#000000" font-family="Verdana" font-size="12">updated_at</text>
</g>
</svg>