<?xml version="1.0" standalone="no"?>
<!DOCTYPE svg PUBLIC "-//W3C//DTD SVG 1.1//EN"
"http://www.w3.org/Graphics/SVG/1.1/DTD/svg11.dtd">

<svg width="292" height="365" view_box="0 0 292 365"
xmlns="http://www.w3.org/2000/svg"
xmlns:link="http://www.w3.org/1999/xlink">\n\n<desc>Généré par Mocodo 2.3.7 le Wed, 31 Mar 2021 07:42:24</desc>

<rect id="frame" x="0" y="0" width="292" height="365" fill="#f7f7f7" stroke="none" stroke-width="0"/>

<!-- Association IS -->
<line x1="243" y1="102" x2="243" y2="288" stroke="#de77ae" stroke-width="2"/>
<text x="248.0" y="212" fill="#4d9221" font-family="Verdana" font-size="12">0,1</text>
<line x1="157" y1="288" x2="243" y2="288" stroke="#de77ae" stroke-width="2"/>
<text x="202" y="305.0" fill="#4d9221" font-family="Verdana" font-size="12">1,1</text>
<g id="association-IS">
	<path d="M 243 263 a 14 14 90 0 1 14 14 V 288 h -28 V 277 a 14 14 90 0 1 14 -14" fill="#f1b6da" stroke="#f1b6da" stroke-width="0"/>
	<path d="M 257 288.0 v 11 a 14 14 90 0 1 -14 14 H 243 a 14 14 90 0 1 -14 -14 V 288.0 H 28" fill="#fde0ef" stroke="#fde0ef" stroke-width="0"/>
	<rect x="229" y="263" width="28" height="50" fill="none" rx="14" stroke="#de77ae" stroke-width="2"/>
	<line x1="229" y1="288" x2="257" y2="288" stroke="#de77ae" stroke-width="1"/>
	<text x="236" y="280.7" fill="#000000" font-family="Verdana" font-size="12">IS</text>
</g>

<!-- Association HAS -->
<line x1="157" y1="288" x2="65" y2="288" stroke="#de77ae" stroke-width="2"/>
<text x="90" y="305.0" fill="#4d9221" font-family="Verdana" font-size="12">0,N</text>
<line x1="65" y1="102" x2="65" y2="288" stroke="#de77ae" stroke-width="2"/>
<text x="70.0" y="195" fill="#4d9221" font-family="Verdana" font-size="12">1,1</text>
<g id="association-HAS">
	<path d="M 71 263 a 14 14 90 0 1 14 14 V 288 h -40 V 277 a 14 14 90 0 1 14 -14" fill="#f1b6da" stroke="#f1b6da" stroke-width="0"/>
	<path d="M 85 288.0 v 11 a 14 14 90 0 1 -14 14 H 59 a 14 14 90 0 1 -14 -14 V 288.0 H 40" fill="#fde0ef" stroke="#fde0ef" stroke-width="0"/>
	<rect x="45" y="263" width="40" height="50" fill="none" rx="14" stroke="#de77ae" stroke-width="2"/>
	<line x1="45" y1="288" x2="85" y2="288" stroke="#de77ae" stroke-width="1"/>
	<text x="52" y="280.7" fill="#000000" font-family="Verdana" font-size="12">HAS</text>
</g>

<!-- Entity SHOT -->
<g id="entity-SHOT">
	<g id="frame-SHOT">
		<rect x="9" y="26" width="112" height="25" fill="#b8e186" stroke="#b8e186" stroke-width="0"/>
		<rect x="9" y="51.0" width="112" height="127" fill="#e6f5d0" stroke="#e6f5d0" stroke-width="0"/>
		<rect x="9" y="26" width="112" height="152" fill="none" stroke="#7fbc41" stroke-width="2"/>
		<line x1="9" y1="51" x2="121" y2="51" stroke="#7fbc41" stroke-width="1"/>
	</g>
	<text x="47" y="43.7" fill="#000000" font-family="Verdana" font-size="12">SHOT</text>
	<text x="14" y="68.7" fill="#000000" font-family="Verdana" font-size="12">title</text>
	<line x1="14" y1="71" x2="38" y2="71" stroke="#000000" stroke-width="1"/>
	<text x="14" y="85.7" fill="#000000" font-family="Verdana" font-size="12">picture</text>
	<text x="14" y="102.8" fill="#000000" font-family="Verdana" font-size="12">description</text>
	<text x="14" y="119.8" fill="#000000" font-family="Verdana" font-size="12">publication_date</text>
	<text x="14" y="136.8" fill="#000000" font-family="Verdana" font-size="12">author_id</text>
	<text x="14" y="153.8" fill="#000000" font-family="Verdana" font-size="12">created_at</text>
	<text x="14" y="170.8" fill="#000000" font-family="Verdana" font-size="12">updated_at</text>
</g>

<!-- Entity USER -->
<g id="entity-USER">
	<g id="frame-USER">
		<rect x="203" y="9" width="80" height="25" fill="#b8e186" stroke="#b8e186" stroke-width="0"/>
		<rect x="203" y="34.0" width="80" height="161" fill="#e6f5d0" stroke="#e6f5d0" stroke-width="0"/>
		<rect x="203" y="9" width="80" height="186" fill="none" stroke="#7fbc41" stroke-width="2"/>
		<line x1="203" y1="34" x2="283" y2="34" stroke="#7fbc41" stroke-width="1"/>
	</g>
	<text x="226" y="26.7" fill="#000000" font-family="Verdana" font-size="12">USER</text>
	<text x="208" y="51.7" fill="#000000" font-family="Verdana" font-size="12">firstname</text>
	<line x1="208" y1="54" x2="266" y2="54" stroke="#000000" stroke-width="1"/>
	<text x="208" y="68.7" fill="#000000" font-family="Verdana" font-size="12">lastname</text>
	<text x="208" y="85.7" fill="#000000" font-family="Verdana" font-size="12">email</text>
	<text x="208" y="102.8" fill="#000000" font-family="Verdana" font-size="12">password</text>
	<text x="208" y="119.8" fill="#000000" font-family="Verdana" font-size="12">city</text>
	<text x="208" y="136.8" fill="#000000" font-family="Verdana" font-size="12">country</text>
	<text x="208" y="153.8" fill="#000000" font-family="Verdana" font-size="12">role</text>
	<text x="208" y="170.8" fill="#000000" font-family="Verdana" font-size="12">created_at</text>
	<text x="208" y="187.8" fill="#000000" font-family="Verdana" font-size="12">updated_at</text>
</g>

<!-- Entity AUTHOR -->
<g id="entity-AUTHOR">
	<g id="frame-AUTHOR">
		<rect x="117" y="220" width="80" height="25" fill="#b8e186" stroke="#b8e186" stroke-width="0"/>
		<rect x="117" y="245.0" width="80" height="111" fill="#e6f5d0" stroke="#e6f5d0" stroke-width="0"/>
		<rect x="117" y="220" width="80" height="136" fill="none" stroke="#7fbc41" stroke-width="2"/>
		<line x1="117" y1="245" x2="197" y2="245" stroke="#7fbc41" stroke-width="1"/>
	</g>
	<text x="131" y="237.7" fill="#000000" font-family="Verdana" font-size="12">AUTHOR</text>
	<text x="122" y="262.7" fill="#000000" font-family="Verdana" font-size="12">username</text>
	<line x1="122" y1="265" x2="183" y2="265" stroke="#000000" stroke-width="1"/>
	<text x="122" y="279.7" fill="#000000" font-family="Verdana" font-size="12">city</text>
	<text x="122" y="296.8" fill="#000000" font-family="Verdana" font-size="12">country</text>
	<text x="122" y="313.8" fill="#000000" font-family="Verdana" font-size="12">user_id</text>
	<text x="122" y="330.8" fill="#000000" font-family="Verdana" font-size="12">created_at</text>
	<text x="122" y="347.8" fill="#000000" font-family="Verdana" font-size="12">updated_at</text>
</g>
</svg>