<?xml version="1.0" encoding="utf-8"?>
<!-- Generator: Adobe Illustrator 22.1.0, SVG Export Plug-In . SVG Version: 6.00 Build 0)  -->
<svg version="1.1" id="adb94446-5251-4268-838a-0133635768e6"
	 xmlns="http://www.w3.org/2000/svg" xmlns:xlink="http://www.w3.org/1999/xlink" x="0px" y="0px" viewBox="0 0 858.8 581.9"
	 style="enable-background:new 0 0 858.8 581.9;" xml:space="preserve">
<style type="text/css">
	.st0{fill:#E20E93;}
	.st1{fill:#3F3D56;}
	.st2{fill:#FFFFFF;}
	.st3{fill:#CCCCCC;}
</style>
<path class="st0" d="M790.2,165.1l0.5,371.5c0,14.4-11.5,26-25.8,26.1l-153.4,0.2c43.2-81.3,67.6-209.2,67.5-307.8
	c0-38.9-4-77.7-11.7-115.9l97-0.1C778.5,139.1,790.1,150.7,790.2,165.1z"/>
<path class="st1" d="M565.4,114.3l-273.3-1.1l26.6-89C323.1,9.9,336.2,0.1,351.1,0h0.1l156,0.6c15,0.1,28.1,10.1,32.3,24.5
	L565.4,114.3z"/>
<path class="st0" d="M718,83.9c-15.8,0-28.7,12.9-28.7,28.9h57.4C746.7,96.8,733.9,83.9,718,83.9z"/>
<path class="st1" d="M806.2,581H51.8C32.6,581,17,565.3,17,545.9V145.7c0-19.4,15.6-35,34.8-35.1h754.3c19.2,0,34.8,15.7,34.8,35.1
	v400.2C841,565.3,825.4,581,806.2,581z M51.8,114.8c-17,0-30.7,13.9-30.7,30.9v400.2c0,17.1,13.8,30.9,30.7,30.9h754.3
	c17,0,30.7-13.9,30.7-30.9V145.7c0-17.1-13.8-30.9-30.7-30.9H51.8z"/>
<path class="st2" d="M461.8,80.8h-65.6c-9.6,0-17.4-7.9-17.4-17.5s7.8-17.5,17.4-17.5h65.6c9.6,0,17.4,7.9,17.4,17.5
	S471.4,80.8,461.8,80.8z"/>
<path class="st1" d="M429,502.6c-86,0-155.8-70.2-155.8-156.8S343,189.1,429,189.1s155.8,70.2,155.8,156.8
	C584.7,432.4,515,502.5,429,502.6z M429,193.2c-83.8,0-151.7,68.3-151.7,152.7S345.2,498.5,429,498.5s151.7-68.3,151.7-152.7
	C580.6,261.6,512.7,193.3,429,193.2z"/>
<path class="st1" d="M429,449c-56.6,0-102.5-46.2-102.5-103.1S372.4,242.7,429,242.7s102.5,46.2,102.5,103.1
	C531.4,402.8,485.6,448.9,429,449z M429,246.8c-54.3,0-98.4,44.3-98.4,99s44,99,98.4,99s98.4-44.3,98.4-99
	C527.3,291.2,483.3,246.9,429,246.8z"/>
<ellipse class="st3" cx="429" cy="345.8" rx="77.9" ry="78.4"/>
<path class="st2" d="M381.9,345.8c0-25.7,18.8-47.5,44.1-51.1c-28-4-54,15.6-57.9,43.8c-4,28.2,15.5,54.3,43.5,58.3
	c4.8,0.7,9.6,0.7,14.4,0C400.6,393.3,381.9,371.5,381.9,345.8z"/>
<path class="st1" d="M769.3,114.8H666.8v-2.1c0-28.5,22.9-51.6,51.2-51.6c28.3,0,51.2,23.1,51.2,51.6V114.8z M670.9,110.7h94.2
	C764,84.5,742,64.2,716,65.3C691.5,66.4,672,86.1,670.9,110.7z"/>
<path class="st1" d="M68.2,172.6c-11.3,0-20.5-9.2-20.5-20.6c0-11.4,9.2-20.6,20.5-20.6s20.5,9.2,20.5,20.6
	C88.7,163.3,79.6,172.5,68.2,172.6z M68.2,135.4c-9.1,0-16.4,7.4-16.4,16.5s7.3,16.5,16.4,16.5s16.4-7.4,16.4-16.5
	C84.6,142.8,77.3,135.4,68.2,135.4z"/>
<ellipse class="st0" cx="68.2" cy="151.9" rx="10.2" ry="10.3"/>
<ellipse class="st3" cx="121.5" cy="151.9" rx="10.2" ry="10.3"/>
<ellipse class="st3" cx="174.8" cy="151.9" rx="10.2" ry="10.3"/>
<path class="st1" d="M121.5,172.6c-11.3,0-20.5-9.2-20.5-20.6c0-11.4,9.2-20.6,20.5-20.6s20.5,9.2,20.5,20.6
	C142,163.3,132.9,172.5,121.5,172.6z M121.5,135.4c-9.1,0-16.4,7.4-16.4,16.5s7.3,16.5,16.4,16.5s16.4-7.4,16.4-16.5
	C137.9,142.8,130.6,135.4,121.5,135.4z"/>
<path class="st1" d="M174.8,172.6c-11.3,0-20.5-9.2-20.5-20.6c0-11.4,9.2-20.6,20.5-20.6s20.5,9.2,20.5,20.6
	C195.3,163.3,186.1,172.5,174.8,172.6z M174.8,135.4c-9.1,0-16.4,7.4-16.4,16.5s7.3,16.5,16.4,16.5c9.1,0,16.4-7.4,16.4-16.5
	C191.2,142.8,183.9,135.4,174.8,135.4z"/>
<rect x="19" y="289.9" class="st1" width="266.5" height="4.1"/>
<rect x="19" y="372.9" class="st1" width="259.9" height="4.1"/>
<rect x="572.5" y="289.9" class="st1" width="266.5" height="4.1"/>
<rect x="578.6" y="372.9" class="st1" width="259.9" height="4.1"/>
</svg>
